<?xml version="1.0" encoding="UTF-8" standalone="no"?>
<!DOCTYPE svg PUBLIC "-//W3C//DTD SVG 1.1//EN"
 "http://www.w3.org/Graphics/SVG/1.1/DTD/svg11.dtd">
<!-- Generated by graphviz version 2.40.1 (0)
 -->
<!-- Title: G Pages: 1 -->
<svg width="459pt" height="66pt"
 viewBox="0.00 0.00 459.20 66.20" xmlns="http://www.w3.org/2000/svg" xmlns:xlink="http://www.w3.org/1999/xlink">
<g id="graph0" class="graph" transform="scale(1 1) rotate(0) translate(21.6 44.6)">
<title>G</title>
<polygon fill="#111111" stroke="transparent" points="-21.6,21.6 -21.6,-44.6 437.6,-44.6 437.6,21.6 -21.6,21.6"/>
<!-- config/nodemailer.js -->
<g id="node1" class="node">
<title>config/nodemailer.js</title>
<path fill="none" stroke="#cfffac" d="M408.3333,-23C408.3333,-23 286.6667,-23 286.6667,-23 282.8333,-23 279,-19.1667 279,-15.3333 279,-15.3333 279,-7.6667 279,-7.6667 279,-3.8333 282.8333,0 286.6667,0 286.6667,0 408.3333,0 408.3333,0 412.1667,0 416,-3.8333 416,-7.6667 416,-7.6667 416,-15.3333 416,-15.3333 416,-19.1667 412.1667,-23 408.3333,-23"/>
<text text-anchor="middle" x="347.5" y="-7.8" font-family="Arial" font-size="14.00" fill="#cfffac">config/nodemailer.js</text>
</g>
<!-- index.js -->
<g id="node2" class="node">
<title>index.js</title>
<path fill="none" stroke="#c6c5fe" d="M54.3333,-23C54.3333,-23 7.6667,-23 7.6667,-23 3.8333,-23 0,-19.1667 0,-15.3333 0,-15.3333 0,-7.6667 0,-7.6667 0,-3.8333 3.8333,0 7.6667,0 7.6667,0 54.3333,0 54.3333,0 58.1667,0 62,-3.8333 62,-7.6667 62,-7.6667 62,-15.3333 62,-15.3333 62,-19.1667 58.1667,-23 54.3333,-23"/>
<text text-anchor="middle" x="31" y="-7.8" font-family="Arial" font-size="14.00" fill="#c6c5fe">index.js</text>
</g>
<!-- workers/sendEmail.js -->
<g id="node3" class="node">
<title>workers/sendEmail.js</title>
<path fill="none" stroke="#c6c5fe" d="M235.3333,-23C235.3333,-23 105.6667,-23 105.6667,-23 101.8333,-23 98,-19.1667 98,-15.3333 98,-15.3333 98,-7.6667 98,-7.6667 98,-3.8333 101.8333,0 105.6667,0 105.6667,0 235.3333,0 235.3333,0 239.1667,0 243,-3.8333 243,-7.6667 243,-7.6667 243,-15.3333 243,-15.3333 243,-19.1667 239.1667,-23 235.3333,-23"/>
<text text-anchor="middle" x="170.5" y="-7.8" font-family="Arial" font-size="14.00" fill="#c6c5fe">workers/sendEmail.js</text>
</g>
<!-- index.js&#45;&gt;workers/sendEmail.js -->
<g id="edge1" class="edge">
<title>index.js&#45;&gt;workers/sendEmail.js</title>
<path fill="none" stroke="#757575" d="M62.3065,-11.5C70.0691,-11.5 78.7555,-11.5 87.7405,-11.5"/>
<polygon fill="#757575" stroke="#757575" points="87.9784,-15.0001 97.9784,-11.5 87.9784,-8.0001 87.9784,-15.0001"/>
</g>
<!-- workers/sendEmail.js&#45;&gt;config/nodemailer.js -->
<g id="edge2" class="edge">
<title>workers/sendEmail.js&#45;&gt;config/nodemailer.js</title>
<path fill="none" stroke="#757575" d="M243.0034,-11.5C251.5122,-11.5 260.2251,-11.5 268.8132,-11.5"/>
<polygon fill="#757575" stroke="#757575" points="268.8178,-15.0001 278.8178,-11.5 268.8178,-8.0001 268.8178,-15.0001"/>
</g>
</g>
</svg>
